# xmcd
#
# Track frame offsets: 
#        150
#        23415
#        44910
#        62630
#        81653
#        99680
#        136358
#        156143
#        172698
#        191268
#        216038
#
# Disc length: 3074 seconds
#
# Revision: 3
# Processed by: cddbd v1.5.2PL0 Copyright (c) Steve Scherf et al.
# Submitted via: ExactAudioCopy v0.95b4
#
DISCID=900c000b
DTITLE=Loudness - Never Stay Here, Never Forget You - Loudness Best Tr
DTITLE=acks (Compilation)
DYEAR=1986
DGENRE=Heavy Metal
TTITLE0=Loudness
TTITLE1=Angel Dust
TTITLE2=Burning Love
TTITLE3=Crazy Doctor (English Version) 
TTITLE4=Run For Your Life
TTITLE5=Sleepless Night
TTITLE6=Bad News
TTITLE7=In The Mirror
TTITLE8=Crazy Night
TTITLE9=Ares' Lament
TTITLE10=Eruption (Instrumental)
EXTD=
EXTT0=
EXTT1=
EXTT2=
EXTT3=
EXTT4=
EXTT5=
EXTT6=
EXTT7=
EXTT8=
EXTT9=
EXTT10=
PLAYORDER=
